<svg xmlns="http://www.w3.org/2000/svg" viewBox="0 0 1920 911" preserveAspectRatio="xMidYMid" width="1920" height="911" style="shape-rendering: auto; display: block; background: rgb(255, 255, 255);" xmlns:xlink="http://www.w3.org/1999/xlink"><g><linearGradient y2="0" y1="0" x2="1" x1="0" id="lg-0.9908079167348434">
  <stop offset="0" stop-color="#0052cc"></stop>
  <stop offset="1" stop-color="#2f27ce"></stop>
</linearGradient><path opacity="0.4" fill="url(#lg-0.9908079167348434)" d="M 1496 456 C 1496 610 1249 850 1103 897 C 957 944 622 891 532 767 C 442 643 517 323 607 199 C 697 75 939 23 1085 70 C 1231 117 1496 302 1496 456">
  <animate values="M 1496 456 C 1496 610 1249 850 1103 897 C 957 944 622 891 532 767 C 442 643 517 323 607 199 C 697 75 939 23 1085 70 C 1231 117 1496 302 1496 456;M 1500 456 C 1500 613 1256 858 1106 906 C 956 954 596 914 504 787 C 412 660 487 306 579 179 C 671 52 954 -36 1104 13 C 1254 62 1500 299 1500 456;M 1590 456 C 1590 621 1248 808 1091 859 C 934 910 656 880 559 747 C 462 614 480 310 577 177 C 674 44 944 -30 1101 21 C 1258 72 1590 291 1590 456;M 1496 456 C 1496 610 1249 850 1103 897 C 957 944 622 891 532 767 C 442 643 517 323 607 199 C 697 75 939 23 1085 70 C 1231 117 1496 302 1496 456" begin="-4s" keySplines="0.3 0.1 0.7 0.9;0.3 0.1 0.7 0.9;0.3 0.1 0.7 0.9" keyTimes="0;0.3333333333333333;0.6666666666666666;1" repeatCount="indefinite" dur="10s" attributeName="d"></animate>
</path><path opacity="0.4" fill="url(#lg-0.9908079167348434)" d="M 1518 456 C 1518 608 1231 798 1087 845 C 943 892 676 850 587 727 C 498 604 486 299 575 176 C 664 53 956 -24 1100 23 C 1244 70 1518 304 1518 456">
  <animate values="M 1518 456 C 1518 608 1231 798 1087 845 C 943 892 676 850 587 727 C 498 604 486 299 575 176 C 664 53 956 -24 1100 23 C 1244 70 1518 304 1518 456;M 1515 456 C 1515 620 1254 829 1098 880 C 942 931 643 889 546 756 C 449 623 468 301 565 168 C 662 35 948 -40 1104 11 C 1260 62 1515 292 1515 456;M 1453 456 C 1453 607 1247 848 1103 895 C 959 942 616 892 527 770 C 438 648 461 280 550 158 C 639 36 934 45 1078 92 C 1222 139 1453 305 1453 456;M 1518 456 C 1518 608 1231 798 1087 845 C 943 892 676 850 587 727 C 498 604 486 299 575 176 C 664 53 956 -24 1100 23 C 1244 70 1518 304 1518 456" begin="-4s" keySplines="0.3 0.1 0.7 0.9;0.3 0.1 0.7 0.9;0.3 0.1 0.7 0.9" keyTimes="0;0.3333333333333333;0.6666666666666666;1" repeatCount="indefinite" dur="10s" attributeName="d"></animate>
</path><path opacity="0.4" fill="url(#lg-0.9908079167348434)" d="M 1577 456 C 1577 623 1269 865 1110 917 C 951 969 607 918 509 783 C 411 648 445 288 543 153 C 641 18 930 7 1089 59 C 1248 111 1577 289 1577 456">
  <animate values="M 1577 456 C 1577 623 1269 865 1110 917 C 951 969 607 918 509 783 C 411 648 445 288 543 153 C 641 18 930 7 1089 59 C 1248 111 1577 289 1577 456;M 1460 456 C 1460 607 1227 786 1083 833 C 939 880 600 904 511 782 C 422 660 451 272 540 150 C 629 28 931 53 1075 100 C 1219 147 1460 305 1460 456;M 1463 456 C 1463 603 1201 723 1062 768 C 923 813 704 823 618 704 C 532 585 506 307 592 188 C 678 69 944 31 1083 76 C 1222 121 1463 309 1463 456;M 1577 456 C 1577 623 1269 865 1110 917 C 951 969 607 918 509 783 C 411 648 445 288 543 153 C 641 18 930 7 1089 59 C 1248 111 1577 289 1577 456" begin="-4s" keySplines="0.3 0.1 0.7 0.9;0.3 0.1 0.7 0.9;0.3 0.1 0.7 0.9" keyTimes="0;0.3333333333333333;0.6666666666666666;1" repeatCount="indefinite" dur="10s" attributeName="d"></animate>
</path><path opacity="0.4" fill="url(#lg-0.9908079167348434)" d="M 1571 456 C 1571 621 1261 848 1104 899 C 947 950 652 883 555 750 C 458 617 447 286 544 153 C 641 20 951 -52 1108 -1 C 1265 50 1571 291 1571 456">
  <animate values="M 1571 456 C 1571 621 1261 848 1104 899 C 947 950 652 883 555 750 C 458 617 447 286 544 153 C 641 20 951 -52 1108 -1 C 1265 50 1571 291 1571 456;M 1512 456 C 1512 626 1259 828 1098 880 C 937 932 568 950 468 813 C 368 676 417 270 517 133 C 617 -4 931 -3 1092 50 C 1253 103 1512 286 1512 456;M 1464 456 C 1464 609 1245 838 1100 885 C 955 932 609 899 519 776 C 429 653 468 288 558 164 C 648 40 920 86 1065 133 C 1210 180 1464 303 1464 456;M 1571 456 C 1571 621 1261 848 1104 899 C 947 950 652 883 555 750 C 458 617 447 286 544 153 C 641 20 951 -52 1108 -1 C 1265 50 1571 291 1571 456" begin="-4s" keySplines="0.3 0.1 0.7 0.9;0.3 0.1 0.7 0.9;0.3 0.1 0.7 0.9" keyTimes="0;0.3333333333333333;0.6666666666666666;1" repeatCount="indefinite" dur="10s" attributeName="d"></animate>
</path><path opacity="0.4" fill="url(#lg-0.9908079167348434)" d="M 1454 456 C 1454 610 1233 796 1086 844 C 939 892 668 859 577 734 C 486 609 435 265 525 140 C 615 15 927 56 1074 104 C 1221 152 1454 302 1454 456">
  <animate values="M 1454 456 C 1454 610 1233 796 1086 844 C 939 892 668 859 577 734 C 486 609 435 265 525 140 C 615 15 927 56 1074 104 C 1221 152 1454 302 1454 456;M 1516 456 C 1516 623 1233 753 1074 805 C 915 857 652 886 554 751 C 456 616 412 263 510 128 C 608 -7 951 -59 1110 -8 C 1269 43 1516 289 1516 456;M 1548 456 C 1548 627 1272 864 1110 917 C 948 970 571 950 470 812 C 369 674 403 262 503 124 C 603 -14 959 -92 1121 -39 C 1283 14 1548 285 1548 456;M 1454 456 C 1454 610 1233 796 1086 844 C 939 892 668 859 577 734 C 486 609 435 265 525 140 C 615 15 927 56 1074 104 C 1221 152 1454 302 1454 456" begin="-4s" keySplines="0.3 0.1 0.7 0.9;0.3 0.1 0.7 0.9;0.3 0.1 0.7 0.9" keyTimes="0;0.3333333333333333;0.6666666666666666;1" repeatCount="indefinite" dur="10s" attributeName="d"></animate>
</path><g></g></g><!-- [ldio] generated by https://loading.io --></svg>